<svg width="525" height="42" viewBox="0 0 525 42" fill="none" xmlns="http://www.w3.org/2000/svg">
<line x1="9" y1="20.3" x2="518" y2="20.3" stroke="white" stroke-width="1.4"/>
<rect y="20.9498" width="7" height="7" transform="rotate(-45 0 20.9498)" fill="white"/>
<rect x="515" y="20.9498" width="7" height="7" transform="rotate(-45 515 20.9498)" fill="white"/>
<path d="M262.805 2.69501L267.565 15.8783L280.997 20.5496L267.565 25.2209L262.805 38.4042L258.046 25.2209L244.614 20.5496L258.046 15.8783L262.805 2.69501Z" fill="white"/>
<path d="M251.979 10.1097L263.492 15.3365L274.716 10.6611L269.598 20.9151L275.32 31.4319L263.807 26.205L252.583 30.8805L257.701 20.6265L251.979 10.1097Z" fill="white"/>
<path d="M307.009 19.8327C307.937 20.1285 307.937 21.4425 307.009 21.7383L296.649 25.0382C296.004 25.2437 295.346 24.7624 295.346 24.0854V17.4856C295.346 16.8087 296.004 16.3273 296.649 16.5328L307.009 19.8327Z" fill="white"/>
<path d="M217.991 21.7384C217.063 21.4425 217.063 20.1285 217.991 19.8327L228.351 16.5328C228.996 16.3273 229.654 16.8087 229.654 17.4856V24.0854C229.654 24.7624 228.996 25.2437 228.351 25.0382L217.991 21.7384Z" fill="white"/>
</svg>
